<svg width="38" height="38" viewBox="0 0 38 38" fill="none" xmlns="http://www.w3.org/2000/svg">
<path d="M16.625 5.9375C16.625 5.62256 16.7501 5.32051 16.9728 5.09781C17.1955 4.87511 17.4976 4.75 17.8125 4.75H34.4375C34.7524 4.75 35.0545 4.87511 35.2772 5.09781C35.4999 5.32051 35.625 5.62256 35.625 5.9375V8.3125C35.625 8.62744 35.4999 8.92949 35.2772 9.15219C35.0545 9.37489 34.7524 9.5 34.4375 9.5H17.8125C17.4976 9.5 17.1955 9.37489 16.9728 9.15219C16.7501 8.92949 16.625 8.62744 16.625 8.3125V5.9375ZM4.75 2.375C3.49022 2.375 2.28204 2.87545 1.39124 3.76624C0.500445 4.65704 0 5.86522 0 7.125L0 11.875C0 13.1348 0.500445 14.343 1.39124 15.2338C2.28204 16.1246 3.49022 16.625 4.75 16.625H9.5C10.7598 16.625 11.968 16.1246 12.8588 15.2338C13.7496 14.343 14.25 13.1348 14.25 11.875V7.125C14.25 5.86522 13.7496 4.65704 12.8588 3.76624C11.968 2.87545 10.7598 2.375 9.5 2.375H4.75ZM4.75 21.375C3.49022 21.375 2.28204 21.8754 1.39124 22.7662C0.500445 23.657 0 24.8652 0 26.125L0 30.875C0 32.1348 0.500445 33.343 1.39124 34.2338C2.28204 35.1246 3.49022 35.625 4.75 35.625H9.5C10.7598 35.625 11.968 35.1246 12.8588 34.2338C13.7496 33.343 14.25 32.1348 14.25 30.875V26.125C14.25 24.8652 13.7496 23.657 12.8588 22.7662C11.968 21.8754 10.7598 21.375 9.5 21.375H4.75ZM6.77825 12.7158C6.66794 12.8263 6.5369 12.9141 6.39263 12.9739C6.24836 13.0338 6.0937 13.0646 5.9375 13.0646C5.7813 13.0646 5.62664 13.0338 5.48237 12.9739C5.3381 12.9141 5.20706 12.8263 5.09675 12.7158L2.72175 10.3408C2.61134 10.2303 2.52376 10.0993 2.46401 9.95501C2.40425 9.81075 2.3735 9.65614 2.3735 9.5C2.3735 9.34386 2.40425 9.18925 2.46401 9.04499C2.52376 8.90073 2.61134 8.76966 2.72175 8.65925C2.83216 8.54884 2.96323 8.46126 3.10749 8.40151C3.25175 8.34175 3.40636 8.311 3.5625 8.311C3.71864 8.311 3.87325 8.34175 4.01751 8.40151C4.16177 8.46126 4.29284 8.54884 4.40325 8.65925L5.9375 10.1959L9.84675 6.28425C9.95716 6.17384 10.0882 6.08626 10.2325 6.02651C10.3767 5.96675 10.5314 5.936 10.6875 5.936C10.8436 5.936 10.9983 5.96675 11.1425 6.02651C11.2868 6.08626 11.4178 6.17384 11.5283 6.28425C11.6387 6.39466 11.7262 6.52573 11.786 6.66999C11.8457 6.81425 11.8765 6.96886 11.8765 7.125C11.8765 7.28114 11.8457 7.43575 11.786 7.58001C11.7262 7.72427 11.6387 7.85534 11.5283 7.96575L6.77825 12.7158ZM6.77825 31.7158C6.66794 31.8263 6.5369 31.9141 6.39263 31.9739C6.24836 32.0338 6.0937 32.0646 5.9375 32.0646C5.7813 32.0646 5.62664 32.0338 5.48237 31.9739C5.3381 31.9141 5.20706 31.8263 5.09675 31.7158L2.72175 29.3408C2.49877 29.1178 2.3735 28.8153 2.3735 28.5C2.3735 28.1847 2.49877 27.8822 2.72175 27.6592C2.94473 27.4363 3.24716 27.311 3.5625 27.311C3.87784 27.311 4.18027 27.4363 4.40325 27.6592L5.9375 29.1959L9.84675 25.2842C10.0697 25.0613 10.3722 24.936 10.6875 24.936C11.0028 24.936 11.3053 25.0613 11.5283 25.2842C11.7512 25.5072 11.8765 25.8097 11.8765 26.125C11.8765 26.4403 11.7512 26.7428 11.5283 26.9658L6.77825 31.7158ZM16.625 24.9375C16.625 24.6226 16.7501 24.3205 16.9728 24.0978C17.1955 23.8751 17.4976 23.75 17.8125 23.75H34.4375C34.7524 23.75 35.0545 23.8751 35.2772 24.0978C35.4999 24.3205 35.625 24.6226 35.625 24.9375V27.3125C35.625 27.6274 35.4999 27.9295 35.2772 28.1522C35.0545 28.3749 34.7524 28.5 34.4375 28.5H17.8125C17.4976 28.5 17.1955 28.3749 16.9728 28.1522C16.7501 27.9295 16.625 27.6274 16.625 27.3125V24.9375ZM16.625 13.0625C16.625 12.7476 16.7501 12.4455 16.9728 12.2228C17.1955 12.0001 17.4976 11.875 17.8125 11.875H29.6875C30.0024 11.875 30.3045 12.0001 30.5272 12.2228C30.7499 12.4455 30.875 12.7476 30.875 13.0625C30.875 13.3774 30.7499 13.6795 30.5272 13.9022C30.3045 14.1249 30.0024 14.25 29.6875 14.25H17.8125C17.4976 14.25 17.1955 14.1249 16.9728 13.9022C16.7501 13.6795 16.625 13.3774 16.625 13.0625ZM16.625 32.0625C16.625 31.7476 16.7501 31.4455 16.9728 31.2228C17.1955 31.0001 17.4976 30.875 17.8125 30.875H29.6875C30.0024 30.875 30.3045 31.0001 30.5272 31.2228C30.7499 31.4455 30.875 31.7476 30.875 32.0625C30.875 32.3774 30.7499 32.6795 30.5272 32.9022C30.3045 33.1249 30.0024 33.25 29.6875 33.25H17.8125C17.4976 33.25 17.1955 33.1249 16.9728 32.9022C16.7501 32.6795 16.625 32.3774 16.625 32.0625Z" fill="white"/>
</svg>
